<?xml version="1.0" standalone="no"?>
<!DOCTYPE svg PUBLIC "-//W3C//DTD SVG 20010904//EN"
 "http://www.w3.org/TR/2001/REC-SVG-20010904/DTD/svg10.dtd">
<svg version="1.0" xmlns="http://www.w3.org/2000/svg"
 width="700.000000pt" height="700.000000pt" viewBox="0 0 700.000000 700.000000"
 preserveAspectRatio="xMidYMid meet">
<metadata>
Created by potrace 1.14, written by Peter Selinger 2001-2017
</metadata>
<g transform="translate(0.000000,700.000000) scale(0.100000,-0.100000)"
fill="#000000" stroke="none">
<path d="M3377 6384 c-1 -1 -47 -5 -102 -8 -109 -8 -126 -10 -261 -32 -828
-135 -1574 -644 -2014 -1374 -123 -204 -253 -503 -306 -705 -1 -5 -9 -35 -17
-65 -20 -72 -55 -243 -62 -300 -3 -25 -8 -61 -10 -80 -25 -179 -25 -519 0
-705 76 -580 303 -1095 673 -1535 84 -100 287 -297 392 -381 426 -340 941
-559 1470 -624 163 -20 474 -26 615 -11 126 12 160 16 185 21 28 6 32 7 151
29 121 23 338 88 477 142 252 100 468 222 697 393 234 175 480 434 642 676 62
92 143 222 143 229 0 2 15 30 33 63 132 235 262 634 302 928 3 22 7 49 10 60
23 115 24 578 1 715 -3 14 -7 48 -11 75 -19 156 -104 481 -157 603 -11 26 -21
55 -24 66 -6 34 -145 309 -207 411 -69 114 -162 245 -251 355 -70 87 -273 292
-361 366 -277 233 -642 438 -955 536 -36 11 -72 23 -80 27 -18 10 -254 69
-296 75 -16 2 -74 11 -129 20 -55 8 -134 18 -175 22 -71 6 -367 13 -373 8z
m1702 -1168 c121 -47 224 -150 261 -261 40 -118 31 -234 -26 -348 -23 -44
-113 -147 -129 -147 -4 0 -19 -8 -33 -19 -57 -40 -192 -72 -312 -75 l-35 -1
-2 -1120 c-2 -803 -6 -1134 -14 -1170 -36 -155 -149 -279 -305 -337 l-59 -21
-1185 -2 c-879 -1 -1198 1 -1237 10 -204 47 -346 237 -330 444 9 115 49 202
129 280 36 36 136 95 187 110 23 7 2130 13 2167 6 39 -7 89 -50 103 -88 14
-36 5 -104 -17 -132 -9 -13 -30 -39 -46 -60 -39 -49 -47 -132 -18 -185 63
-115 229 -125 300 -17 l27 40 3 264 c3 263 3 264 -22 319 -29 63 -74 108 -135
136 -43 20 -66 20 -1080 22 l-1036 1 -1 995 c0 821 2 1005 14 1049 41 163 164
284 322 317 40 8 376 11 1260 10 1114 -2 1208 -4 1249 -20z"/>
<path d="M4905 4943 c-34 -9 -72 -41 -88 -75 -10 -22 -15 -62 -15 -122 l1 -88
76 4 c85 6 134 26 169 69 42 53 27 147 -31 190 -25 18 -82 29 -112 22z"/>
<path d="M2630 4495 c0 -144 0 -145 23 -145 170 -4 1717 -4 1718 0 3 18 4 267
1 278 -3 9 -186 12 -873 12 l-869 0 0 -145z"/>
<path d="M2647 4062 c-15 -3 -17 -21 -17 -148 l0 -144 869 0 c686 0 870 3 873
13 3 10 2 212 -1 267 -1 13 -103 15 -854 15 -469 0 -861 -1 -870 -3z"/>
<path d="M2634 3481 c-2 -2 -4 -68 -4 -146 l0 -142 870 -2 c683 0 870 2 871
12 4 43 3 277 -1 278 -16 4 -1732 3 -1736 0z"/>
</g>
</svg>
