<svg width="29" height="30" viewBox="0 0 29 30" fill="none" xmlns="http://www.w3.org/2000/svg">
<path d="M22.2333 20.2069C22.2333 20.503 22.1713 20.8074 22.0396 21.1035C21.908 21.3997 21.7376 21.6793 21.513 21.9426C21.1335 22.3868 20.7153 22.7076 20.2428 22.9132C19.7781 23.1188 19.2747 23.2258 18.7326 23.2258C17.9426 23.2258 17.0984 23.0284 16.2077 22.6253C15.317 22.2222 14.4264 21.6793 13.5434 20.9966C12.6436 20.2975 11.7944 19.5276 11.0031 18.6934C10.2199 17.856 9.49755 16.9568 8.84225 16.0035C8.20716 15.0658 7.696 14.128 7.32424 13.1985C6.95248 12.2608 6.7666 11.3642 6.7666 10.5087C6.7666 9.94933 6.85954 9.41465 7.04542 8.92111C7.2313 8.41933 7.52561 7.95869 7.93609 7.5474C8.43177 7.02917 8.97391 6.77417 9.54704 6.77417C9.7639 6.77417 9.98076 6.82352 10.1744 6.92223C10.3757 7.02094 10.5539 7.16901 10.6933 7.38288L12.4901 10.0727C12.6295 10.2784 12.7302 10.4676 12.7999 10.6485C12.8696 10.8213 12.9083 10.994 12.9083 11.1503C12.9083 11.3477 12.8541 11.5451 12.7457 11.7343C12.645 11.9235 12.4979 12.1209 12.312 12.3184L11.7234 12.9682C11.6382 13.0587 11.5995 13.1656 11.5995 13.2972C11.5995 13.363 11.6072 13.4206 11.6227 13.4864C11.6459 13.5522 11.6692 13.6016 11.6846 13.6509C11.8241 13.9224 12.0641 14.2761 12.4049 14.7038C12.7534 15.1316 13.1252 15.5676 13.5279 16.0035C13.9462 16.4395 14.3489 16.8426 14.7594 17.2127C15.1621 17.5747 15.4952 17.8214 15.7585 17.9695C15.7972 17.9859 15.8437 18.0106 15.8979 18.0353C15.9599 18.06 16.0218 18.0682 16.0915 18.0682C16.2232 18.0682 16.3239 18.0188 16.4091 17.9284L16.9977 17.3114C17.1913 17.1058 17.3772 16.9495 17.5553 16.8508C17.7335 16.7356 17.9116 16.678 18.1052 16.678C18.2524 16.678 18.4073 16.7109 18.5777 16.785C18.748 16.859 18.9262 16.9659 19.1198 17.1058L21.6834 19.0388C21.8847 19.1869 22.0242 19.3597 22.1093 19.5653C22.1868 19.7709 22.2333 19.9766 22.2333 20.2069Z" stroke="white" stroke-miterlimit="10"/>
<rect x="0.5" y="0.5" width="28" height="29" rx="14" stroke="white"/>
</svg>
