<svg width="82" height="82" viewBox="0 0 82 82" fill="none" xmlns="http://www.w3.org/2000/svg">
<path d="M65.3947 66.6251C71.668 60.2465 75.1782 51.6549 75.1663 42.7084C75.1663 23.8484 59.8597 8.54175 40.9997 8.54175C22.1397 8.54175 6.83301 23.8484 6.83301 42.7084C6.83301 52.0017 10.523 60.4067 16.5363 66.5909" stroke="white" stroke-width="4" stroke-miterlimit="10" stroke-linecap="round" stroke-linejoin="round"/>
<path d="M41.0005 73.4583C44.0633 73.4583 47.0007 72.2416 49.1664 70.0759C51.3321 67.9102 52.5488 64.9728 52.5488 61.91C52.5488 58.8472 51.3321 55.9098 49.1664 53.7441C47.0007 51.5784 44.0633 50.3617 41.0005 50.3617C37.9377 50.3617 35.0003 51.5784 32.8346 53.7441C30.6688 55.9098 29.4521 58.8472 29.4521 61.91C29.4521 64.9728 30.6688 67.9102 32.8346 70.0759C35.0003 72.2416 37.9377 73.4583 41.0005 73.4583ZM52.1046 41H54.6671C57.4688 41 59.7921 38.7108 59.7921 35.875C59.7921 33.0733 57.4688 30.75 54.6671 30.75C51.8655 30.75 49.5421 33.0392 49.5421 35.875V38.4375C49.5421 39.8383 50.7038 41 52.1046 41Z" stroke="white" stroke-width="4" stroke-miterlimit="10" stroke-linecap="round" stroke-linejoin="round"/>
</svg>
