<svg width="82" height="82" viewBox="0 0 82 82" fill="none" xmlns="http://www.w3.org/2000/svg">
<path d="M45.0997 49.2001C45.0997 52.8217 43.528 56.1017 40.9997 58.3567C38.813 60.3384 35.943 61.5001 32.7997 61.5001C29.8193 61.5052 26.9385 60.4274 24.6934 58.4672C22.4483 56.507 20.9918 53.7979 20.5949 50.844C20.198 47.8902 20.8877 44.8927 22.5357 42.4094C24.1837 39.9261 26.6778 38.126 29.5539 37.3442C30.4632 39.6389 32.0401 41.6079 34.0806 42.9967C36.1212 44.3855 38.5314 45.1301 40.9997 45.1342C42.1272 45.1342 43.2205 44.9976 44.2455 44.6901C44.7922 46.0567 45.0997 47.5942 45.0997 49.2001Z" stroke="white" stroke-width="4" stroke-linecap="round" stroke-linejoin="round"/>
<path d="M53.3003 32.8C53.3003 34.4058 52.9928 35.9433 52.4462 37.3442C51.5368 39.6388 49.9599 41.6079 47.9194 42.9966C45.8789 44.3854 43.4686 45.13 41.0003 45.1342C39.8728 45.1342 38.7795 44.9975 37.7545 44.69C35.1454 43.984 32.8429 42.4352 31.2054 40.2848C29.5678 38.1344 28.6871 35.5029 28.7003 32.8C28.7003 26.0008 34.2012 20.5 41.0003 20.5C47.7995 20.5 53.3003 26.0008 53.3003 32.8Z" stroke="white" stroke-width="4" stroke-linecap="round" stroke-linejoin="round"/>
<path d="M61.5 49.2001C61.5008 51.5748 60.8137 53.899 59.5219 55.8916C58.23 57.8842 56.3887 59.46 54.2204 60.4285C52.0521 61.397 49.6497 61.7167 47.3036 61.3491C44.9575 60.9814 42.7681 59.9421 41 58.3567C42.297 57.2113 43.3339 55.8015 44.0411 54.2222C44.7483 52.6428 45.1093 50.9305 45.1 49.2001C45.1 47.5942 44.7925 46.0567 44.2458 44.6559C48.0042 43.6309 51.045 40.8976 52.4458 37.3101C55.0454 38.033 57.3371 39.5863 58.9718 41.7329C60.6065 43.8796 61.4943 46.5019 61.5 49.2001Z" stroke="white" stroke-width="4" stroke-linecap="round" stroke-linejoin="round"/>
<path d="M30.7497 75.1666H51.2497C68.333 75.1666 75.1663 68.3333 75.1663 51.2499V30.7499C75.1663 13.6666 68.333 6.83325 51.2497 6.83325H30.7497C13.6663 6.83325 6.83301 13.6666 6.83301 30.7499V51.2499C6.83301 68.3333 13.6663 75.1666 30.7497 75.1666Z" stroke="white" stroke-width="4" stroke-linecap="round" stroke-linejoin="round"/>
</svg>
