<svg width="70" height="70" viewBox="0 0 70 70" fill="none" xmlns="http://www.w3.org/2000/svg">
<path d="M29.1667 64.1667H40.8333C55.4167 64.1667 61.25 58.3333 61.25 43.75V26.25C61.25 11.6667 55.4167 5.83333 40.8333 5.83333H29.1667C14.5833 5.83333 8.75 11.6667 8.75 26.25V43.75C8.75 58.3333 14.5833 64.1667 29.1667 64.1667Z" stroke="black" stroke-width="3" stroke-linecap="round" stroke-linejoin="round"/>
<path d="M48.125 22.1083V25.025C48.125 27.4167 46.1708 29.4 43.75 29.4H26.25C23.8583 29.4 21.875 27.4458 21.875 25.025V22.1083C21.875 19.7167 23.8292 17.7333 26.25 17.7333H43.75C46.1708 17.7333 48.125 19.6875 48.125 22.1083Z" stroke="black" stroke-width="3" stroke-linecap="round" stroke-linejoin="round"/>
<path d="M23.7305 40.8333H23.7655M34.9859 40.8333H35.0209M46.2413 40.8333H46.2763M23.7305 51.0417H23.7655M34.9859 51.0417H35.0209M46.2413 51.0417H46.2763" stroke="black" stroke-width="3" stroke-linecap="round" stroke-linejoin="round"/>
</svg>
