<svg width="70" height="70" viewBox="0 0 70 70" fill="none" xmlns="http://www.w3.org/2000/svg">
<path d="M37.683 6.59167L56.6705 16.8292C58.8872 18.025 58.8872 21.4375 56.6705 22.6333L37.683 32.8708C35.9913 33.775 34.008 33.775 32.3163 32.8708L13.3288 22.6333C11.1122 21.4375 11.1122 18.025 13.3288 16.8292L32.3163 6.59167C34.008 5.6875 35.9913 5.6875 37.683 6.59167ZM10.5288 29.5458L28.1747 38.3833C30.3622 39.4917 31.7622 41.7375 31.7622 44.1875V60.8708C31.7622 63.2917 29.2247 64.8375 27.0663 63.7583L9.42051 54.9208C8.34532 54.3784 7.44113 53.5492 6.80798 52.5248C6.17483 51.5005 5.83739 50.3209 5.83301 49.1167V32.4333C5.83301 30.0125 8.37051 28.4667 10.5288 29.5458ZM59.4705 29.5458L41.8247 38.3833C39.6372 39.4917 38.2372 41.7375 38.2372 44.1875V60.8708C38.2372 63.2917 40.7747 64.8375 42.933 63.7583L60.5788 54.9208C62.7663 53.8125 64.1663 51.5667 64.1663 49.1167V32.4333C64.1663 30.0125 61.6288 28.4667 59.4705 29.5458Z" stroke="black" stroke-width="3" stroke-linecap="round" stroke-linejoin="round"/>
</svg>
