<svg width="70" height="70" viewBox="0 0 70 70" fill="none" xmlns="http://www.w3.org/2000/svg">
<path d="M34.2413 51.7708H51.508C51.2455 52.0042 50.983 52.2083 50.7205 52.4417L38.2663 61.775C34.1538 64.8375 27.4455 64.8375 23.3038 61.775L10.8205 52.4417C8.07884 50.4 5.83301 45.8792 5.83301 42.4667V20.8542C5.83301 17.2958 8.54551 13.3583 11.8705 12.1042L26.3955 6.64999C28.7872 5.74582 32.7538 5.74582 35.1455 6.64999L49.6413 12.1042C52.4122 13.1542 54.7747 16.0708 55.5038 19.0458H34.2122C33.5705 19.0458 32.9872 19.075 32.433 19.075C27.0372 19.3958 25.6372 21.35 25.6372 27.5042V43.3417C25.6663 50.05 27.3872 51.7708 34.2413 51.7708Z" stroke="black" stroke-width="2" stroke-linecap="round" stroke-linejoin="round"/>
<path d="M25.667 32.725H64.167" stroke="black" stroke-width="2" stroke-miterlimit="10" stroke-linecap="round" stroke-linejoin="round"/>
<path d="M64.167 27.475V43.6625C64.1087 50.1375 62.3295 51.7417 55.592 51.7417H34.242C27.3878 51.7417 25.667 50.0208 25.667 43.2833V27.4458C25.667 21.3208 27.067 19.3667 32.4628 19.0167C33.017 19.0167 33.6003 18.9875 34.242 18.9875H55.592C62.4462 19.0167 64.167 20.7083 64.167 27.475Z" stroke="black" stroke-width="2" stroke-linecap="round" stroke-linejoin="round"/>
<path d="M33.0166 44.5083H36.8958M43.0208 44.5083H52.5583" stroke="black" stroke-width="2" stroke-miterlimit="10" stroke-linecap="round" stroke-linejoin="round"/>
</svg>
