<svg width="82" height="82" viewBox="0 0 82 82" fill="none" xmlns="http://www.w3.org/2000/svg">
<path d="M71.4426 37.9933C71.4426 54.7008 59.3135 70.3491 42.7426 74.9274C41.6151 75.2349 40.3851 75.2349 39.2576 74.9274C22.6868 70.3491 10.5576 54.7008 10.5576 37.9933V22.9941C10.5576 20.1924 12.676 17.0149 15.3068 15.9558L34.3376 8.16576C38.6085 6.42326 43.426 6.42326 47.6968 8.16576L66.7276 15.9558C69.3243 17.0149 71.4768 20.1924 71.4768 22.9941L71.4426 37.9933Z" stroke="white" stroke-width="4" stroke-linecap="round" stroke-linejoin="round"/>
<path d="M41.0003 42.7084C42.8126 42.7084 44.5507 41.9885 45.8322 40.707C47.1137 39.4255 47.8337 37.6874 47.8337 35.8751C47.8337 34.0628 47.1137 32.3247 45.8322 31.0432C44.5507 29.7617 42.8126 29.0417 41.0003 29.0417C39.188 29.0417 37.4499 29.7617 36.1684 31.0432C34.8869 32.3247 34.167 34.0628 34.167 35.8751C34.167 37.6874 34.8869 39.4255 36.1684 40.707C37.4499 41.9885 39.188 42.7084 41.0003 42.7084ZM41.0003 42.7084V52.9584" stroke="white" stroke-width="4" stroke-miterlimit="10" stroke-linecap="round" stroke-linejoin="round"/>
</svg>
