<svg role="presentation" width="50" height="50" viewBox="0 0 50 50" fill="none" xmlns="http://www.w3.org/2000/svg"><g clip-path="url(#a)"><path d="M25 43c9.941 0 18-8.059 18-18S34.941 7 25 7 7 15.059 7 25s8.059 18 18 18Z" fill="#fff"></path><path d="m27.33 24.18-3.12-.7c-1.2-.27-2.56-.63-2.56-1.75s.96-1.9 2.7-1.9c3.48 0 3.16 2.4 4.9 2.4.91 0 1.7-.54 1.7-1.46 0-2.16-3.44-3.77-6.36-3.77-3.17 0-6.55 1.35-6.55 4.93 0 1.73.62 3.57 4.02 4.42l4.22 1.05c1.28.32 1.6 1.04 1.6 1.69 0 1.07-1.07 2.13-3.01 2.13-3.8 0-3.27-2.92-5.3-2.92-.9 0-1.57.63-1.57 1.53 0 1.74 2.12 4.08 6.87 4.08 4.51 0 6.75-2.18 6.75-5.1 0-1.88-.87-3.87-4.29-4.63Z" fill="#00B2F0"></path><path d="M25 0a25 25 0 1 0 0 50 25 25 0 0 0 0-50Zm11.55 36.72a7.85 7.85 0 0 1-9.48 1.3 13.35 13.35 0 0 1-15.5-15.46A7.9 7.9 0 0 1 22.2 11.75h.01a13.44 13.44 0 0 1 11.97 3.67 13.31 13.31 0 0 1 3.7 11.86 7.9 7.9 0 0 1-1.32 9.44h-.01Z" fill="#00B2F0"></path></g><defs><clipPath id="a"><path fill="#fff" d="M0 0h50v50H0z"></path></clipPath></defs></svg>