<svg width="29" height="30" viewBox="0 0 29 30" fill="none" xmlns="http://www.w3.org/2000/svg">
<g clip-path="url(#clip0_233_103)">
<path d="M14.5 0C11.9615 0.000680557 9.46755 0.690553 7.26753 2.00067C5.06751 3.31078 3.23844 5.19525 1.96313 7.46573C0.687818 9.7362 0.0109342 12.3132 0.000131365 14.939C-0.0106715 17.5649 0.644985 20.1477 1.90157 22.4293L0.595932 27.1565C0.510702 27.4651 0.506807 27.7917 0.584653 28.1024C0.662499 28.4131 0.819252 28.6967 1.03867 28.9236C1.25809 29.1506 1.53219 29.3127 1.83256 29.3932C2.13293 29.4737 2.44866 29.4696 2.74701 29.3815L7.31692 28.031C9.24628 29.1688 11.4025 29.833 13.6193 29.9724C15.8361 30.1117 18.0543 29.7225 20.1027 28.8348C22.151 27.947 23.9749 26.5844 25.4336 24.8521C26.8923 23.1198 27.9469 21.064 28.5159 18.8434C29.085 16.6227 29.1533 14.2966 28.7157 12.0443C28.2781 9.79199 27.3462 7.67378 25.9919 5.85302C24.6376 4.03226 22.897 2.5576 20.9046 1.5428C18.9121 0.527993 16.7209 0.000156588 14.5 0ZM14.5 28.798C12.1041 28.7997 9.75218 28.133 7.69187 26.8681C7.62395 26.8263 7.54848 26.7992 7.47009 26.7887C7.3917 26.7782 7.31205 26.7844 7.23606 26.8069L2.42826 28.2278C2.3288 28.2572 2.22356 28.2585 2.12344 28.2317C2.02331 28.2049 1.93195 28.1508 1.85882 28.0751C1.78569 27.9995 1.73345 27.905 1.70752 27.8014C1.68158 27.6978 1.6829 27.5889 1.71133 27.4861L3.08486 22.513C3.10657 22.4344 3.11251 22.352 3.10233 22.2709C3.09216 22.1898 3.06607 22.1117 3.02567 22.0415C1.52313 19.4229 0.899992 16.3639 1.25334 13.3408C1.60669 10.3178 2.91667 7.5005 4.97924 5.32785C7.0418 3.1552 9.74112 1.74918 12.6567 1.32882C15.5723 0.908459 18.5404 1.49737 21.0987 3.0038C23.657 4.51023 25.6618 6.8496 26.8008 9.65748C27.9399 12.4654 28.1491 15.5841 27.3961 18.5278C26.643 21.4716 24.9699 24.075 22.6373 25.9326C20.3048 27.7902 17.4438 28.7977 14.5 28.798ZM21.8241 17.7802L18.8575 16.0267C18.5891 15.8682 18.2848 15.7865 17.9757 15.7899C17.6667 15.7933 17.3641 15.8817 17.099 16.046L15.0971 17.2885C13.8851 16.6534 12.9006 15.6349 12.2866 14.3813L13.4878 12.3105C13.6466 12.0362 13.7321 11.7233 13.7353 11.4036C13.7386 11.084 13.6596 10.7692 13.5065 10.4915L11.8113 7.42273C11.6729 7.1729 11.4732 6.96524 11.2324 6.82072C10.9917 6.67619 10.7183 6.5999 10.4399 6.59955C9.21241 6.59986 8.035 7.10319 7.16539 7.99938C6.29578 8.89556 5.80481 10.1116 5.79993 11.3814C5.79768 13.0374 6.11106 14.6776 6.72214 16.2083C7.33322 17.7389 8.23003 19.1299 9.36125 20.3018C10.4925 21.4736 11.8359 22.4032 13.3148 23.0375C14.7936 23.6718 16.3789 23.9983 17.9798 23.9984H17.9972C19.2247 23.9933 20.4003 23.4854 21.2667 22.5859C22.133 21.6864 22.6196 20.4685 22.6199 19.1987C22.6196 18.9108 22.5459 18.628 22.4062 18.3789C22.2664 18.1299 22.0657 17.9234 21.8241 17.7802ZM17.9956 22.7985H17.9799C16.5314 22.7985 15.0971 22.5031 13.7591 21.9292C12.4211 21.3553 11.2056 20.5142 10.1821 19.454C9.15857 18.3938 8.34717 17.1352 7.79429 15.7504C7.2414 14.3655 6.95788 12.8814 6.95993 11.3831C6.96394 10.4312 7.33236 9.51961 7.98457 8.84798C8.63677 8.17635 9.51964 7.79934 10.4399 7.79947C10.5139 7.79957 10.5864 7.81982 10.6504 7.85819C10.7143 7.89655 10.7674 7.95168 10.8041 8.01801L12.4993 11.0869C12.5504 11.1795 12.5767 11.2844 12.5756 11.391C12.5745 11.4975 12.546 11.6018 12.4931 11.6932L11.1317 14.0403C11.0835 14.1233 11.0555 14.2171 11.05 14.3136C11.0445 14.4102 11.0616 14.5068 11.1 14.595C11.857 16.3378 13.2057 17.7329 14.8905 18.516C14.9759 18.5557 15.0692 18.5735 15.1626 18.5677C15.256 18.562 15.3467 18.533 15.4269 18.4832L17.6957 17.075C17.7841 17.0202 17.885 16.9907 17.988 16.9896C18.091 16.9884 18.1925 17.0156 18.282 17.0684L21.2487 18.8221C21.3128 18.8601 21.3661 18.915 21.4032 18.9811C21.4403 19.0472 21.4599 19.1223 21.4599 19.1987C21.46 20.1506 21.0956 21.0639 20.4463 21.7385C19.7971 22.4132 18.9159 22.7943 17.9956 22.7985Z" fill="white"/>
</g>
<defs>
<clipPath id="clip0_233_103">
<rect width="29" height="30" fill="white"/>
</clipPath>
</defs>
</svg>
